<?xml version="1.0" standalone="no"?>
<!DOCTYPE svg PUBLIC "-//W3C//DTD SVG 20010904//EN"
 "http://www.w3.org/TR/2001/REC-SVG-20010904/DTD/svg10.dtd">
<svg version="1.0" xmlns="http://www.w3.org/2000/svg"
 width="1001.000000pt" height="1001.000000pt" viewBox="0 0 1001.000000 1001.000000"
 preserveAspectRatio="xMidYMid meet">
<metadata>
Created by potrace 1.11, written by Peter Selinger 2001-2013
</metadata>
<g transform="translate(0.000000,1001.000000) scale(0.100000,-0.100000)"
fill="#000000" stroke="none">
<path d="M10 5010 l0 -5000 5000 0 5000 0 0 5000 0 5000 -5000 0 -5000 0 0
-5000z m3498 2635 l113 -125 -43 -17 c-174 -68 -362 -197 -523 -359 -140 -141
-175 -160 -280 -152 -43 4 -78 14 -105 29 -22 13 -117 106 -212 205 -95 100
-251 263 -347 363 l-173 181 728 0 729 0 113 -125z m4541 68 c-31 -32 -200
-210 -377 -395 -356 -372 -358 -374 -477 -372 -89 1 -147 36 -239 145 -124
145 -338 308 -493 376 -34 15 -63 30 -63 33 0 4 57 66 126 138 l126 132 726 0
726 0 -55 -57z m-2004 -470 c252 -58 432 -159 606 -340 127 -132 198 -247 257
-415 69 -194 67 -160 67 -1218 0 -878 -1 -962 -18 -1043 -22 -108 -68 -241
-113 -327 l-34 -64 38 -41 c235 -246 1141 -1196 1191 -1248 l65 -67 -725 0
-725 0 -376 396 -376 395 -863 -1 c-512 0 -911 4 -979 10 -290 25 -515 128
-721 330 -164 161 -254 314 -316 536 l-28 99 0 1025 0 1025 22 83 c32 119 85
242 145 339 59 95 192 242 277 307 172 132 402 221 621 239 25 2 461 3 970 2
898 -1 928 -2 1015 -22z m-2997 -3862 c20 -11 62 -42 92 -69 172 -154 388
-271 615 -333 44 -11 82 -23 84 -25 2 -2 -97 -109 -220 -238 l-224 -234 -730
-1 -729 -1 65 68 c37 37 223 231 414 432 191 201 361 374 377 384 77 50 179
57 256 17z"/>
<path d="M4210 6354 c-155 -42 -285 -181 -319 -342 -15 -74 -15 -1410 0 -1484
36 -172 181 -316 350 -348 29 -6 220 -10 426 -10 l374 0 -16 30 c-21 41 -19
118 5 157 42 70 23 67 544 73 l469 5 16 40 c14 35 16 129 19 764 2 498 -1 741
-8 778 -25 118 -123 248 -228 302 -99 51 -105 51 -867 50 -592 0 -719 -3 -765
-15z"/>
</g>
</svg>
