<?xml version="1.0" standalone="no"?>
<!DOCTYPE svg PUBLIC "-//W3C//DTD SVG 20010904//EN"
 "http://www.w3.org/TR/2001/REC-SVG-20010904/DTD/svg10.dtd">
<svg version="1.0" xmlns="http://www.w3.org/2000/svg"
 width="537.000000pt" height="537.000000pt" viewBox="0 0 537.000000 537.000000"
 preserveAspectRatio="xMidYMid meet">
<metadata>
Created by potrace 1.11, written by Peter Selinger 2001-2013
</metadata>
<g transform="translate(0.000000,537.000000) scale(0.100000,-0.100000)"
fill="#000000" stroke="none">
<path d="M2528 5365 c-2 -1 -41 -5 -88 -9 -47 -4 -96 -8 -110 -11 -14 -2 -43
-6 -65 -9 -451 -65 -943 -291 -1315 -602 -51 -43 -272 -264 -309 -309 -312
-377 -523 -823 -596 -1255 -3 -19 -8 -42 -10 -50 -4 -17 -14 -91 -25 -200 -7
-78 -5 -467 3 -510 3 -14 8 -52 12 -85 4 -32 9 -68 11 -80 2 -11 7 -36 10 -55
12 -73 55 -240 89 -344 146 -447 403 -839 761 -1163 224 -203 507 -379 790
-491 171 -68 412 -136 559 -157 22 -3 54 -8 70 -11 89 -16 223 -22 420 -19
121 2 231 6 245 9 14 2 48 7 75 11 366 44 765 194 1100 412 437 286 789 702
994 1178 12 28 26 59 31 70 37 81 124 381 144 495 2 14 7 41 10 60 24 134 31
244 31 450 -1 224 -6 287 -36 460 -79 457 -290 909 -588 1260 -77 92 -241 257
-313 315 -33 28 -66 55 -72 60 -63 57 -283 201 -416 272 -207 111 -551 234
-720 258 -14 2 -47 8 -75 14 -27 5 -77 13 -110 16 -33 4 -69 9 -80 12 -23 5
-422 13 -427 8z"/>
</g>
</svg>
